<?xml version="1.0" encoding="UTF-8"?>
<svg id="Layer_2" data-name="Layer 2" xmlns="http://www.w3.org/2000/svg" viewBox="0 0 164 164">
  <defs>
    <style>
      .cls-1 {
        fill: #056eff;
      }

      .cls-1, .cls-2 {
        stroke-width: 0px;
      }

      .cls-2 {
        fill: #fff;
      }
    </style>
  </defs>
  <g id="Layer_1-2" data-name="Layer 1">
    <g>
      <circle class="cls-1" cx="82" cy="82" r="82"/>
      <g>
        <g id="other_2" data-name="other 2">
          <path class="cls-2" d="m84.2,131.4c-.35,0-.68-.13-.93-.37-.27-.26-.43-.61-.43-.99v-16.6h-15.6v14.38c0,.43-.21.84-.55,1.09-.35.26-.8.33-1.21.2-22.12-6.94-37.08-28.01-36.38-51.23.4-13.35,5.92-25.92,15.53-35.39,9.61-9.47,22.26-14.8,35.62-15,.27,0,.54,0,.8,0,25.49,0,47.52,18.78,51.42,44,.06.39-.05.79-.31,1.09-.26.3-.63.47-1.03.47h-14.51v43.8c0,.38-.16.74-.44,1-2.27,2.09-4.75,3.98-7.38,5.63-.42.26-.95.28-1.38.04-.43-.24-.7-.69-.7-1.19v-28.19h-15.59v35.25c0,.66-.48,1.22-1.13,1.34-1.9.33-3.82.55-5.74.66-.03,0-.05,0-.08,0Zm-18.31-20.67h18.31c.75,0,1.36.61,1.36,1.36v16.5c.96-.08,1.92-.2,2.87-.34v-35.45c0-.75.61-1.36,1.36-1.36h18.3c.75,0,1.36.61,1.36,1.36v27.01c1.56-1.1,3.06-2.29,4.47-3.55v-44.55c0-.75.61-1.36,1.36-1.36h14.26c-4.39-23.36-25.25-40.51-49.23-40.13-12.66.2-24.64,5.25-33.76,14.22-9.12,8.98-14.34,20.89-14.72,33.53-.65,21.39,12.72,40.85,32.71,47.97v-13.86c0-.75.61-1.36,1.36-1.36Z"/>
          <path class="cls-2" d="m84.2,131.01c-.29,0-.57-.09-.8-.26-.35-.26-.55-.66-.55-1.09v-16.21h-15.6v3.37c0,.63-.44,1.18-1.05,1.32-.62.14-1.25-.16-1.52-.73-4.71-9.75-7.41-23.57-7.41-37.91,0-29.16,10.46-52,23.82-52s23.82,22.84,23.82,52c0,4.56-.27,9.09-.79,13.46-.08.68-.66,1.2-1.35,1.2h-11.63v32.04c0,.37-.15.73-.42.98-1.93,1.84-3.99,3.11-6.12,3.77-.13.04-.27.06-.4.06Zm-18.31-20.28h18.31c.75,0,1.36.61,1.36,1.36v15.54c.97-.51,1.93-1.18,2.87-2.02v-32.81c0-.75.61-1.36,1.36-1.36h11.77c.42-3.89.63-7.91.63-11.94,0-26.72-9.67-49.29-21.11-49.29s-21.11,22.57-21.11,49.29c0,11.57,1.79,22.75,4.99,31.6.24-.23.57-.36.93-.36Z"/>
          <path class="cls-2" d="m84.2,136.51h-18.31c-.75,0-1.36-.61-1.36-1.36v-23.07c0-.75.61-1.36,1.36-1.36h18.31c.75,0,1.36.61,1.36,1.36v23.07c0,.75-.61,1.36-1.36,1.36Zm-16.95-2.71h15.6v-20.36h-15.6v20.36Z"/>
          <path class="cls-2" d="m81.08,113.44c-.75,0-1.36-.61-1.36-1.36V28.85c0-.75.61-1.37,1.36-1.37s1.36.6,1.36,1.35v83.25c0,.75-.61,1.36-1.36,1.36Z"/>
          <path class="cls-2" d="m115.02,80.86H30.88c-.75,0-1.36-.61-1.36-1.36s.61-1.36,1.36-1.36h84.14c.75,0,1.36.61,1.36,1.36s-.61,1.36-1.36,1.36Z"/>
        </g>
        <path class="cls-2" d="m108.08,136.51h-18.3c-.75,0-1.36-.61-1.36-1.36v-42.36c0-.75.61-1.36,1.36-1.36h18.3c.75,0,1.36.61,1.36,1.36v42.36c0,.75-.61,1.36-1.36,1.36Zm-16.95-2.71h15.59v-39.64h-15.59v39.64Z"/>
        <path class="cls-2" d="m133.57,136.51h-18.3c-.75,0-1.36-.61-1.36-1.36v-63.45c0-.75.61-1.36,1.36-1.36h18.3c.75,0,1.36.61,1.36,1.36v63.45c0,.75-.61,1.36-1.36,1.36Zm-16.95-2.71h15.59v-60.73h-15.59v60.73Z"/>
      </g>
    </g>
  </g>
</svg>