<?xml version="1.0" encoding="UTF-8"?>
<svg id="Layer_2" data-name="Layer 2" xmlns="http://www.w3.org/2000/svg" viewBox="0 0 164 164">
  <defs>
    <style>
      .cls-1 {
        fill: #056eff;
      }

      .cls-1, .cls-2 {
        stroke-width: 0px;
      }

      .cls-2 {
        fill: #fff;
      }
    </style>
  </defs>
  <g id="Layer_1-2" data-name="Layer 1">
    <g>
      <circle class="cls-1" cx="82" cy="82" r="82"/>
      <g>
        <path class="cls-2" d="m59.51,142.9c-.4,0-.78-.16-1.06-.44l-13.56-13.56c-.58-.58-.59-1.53,0-2.12l21.53-21.61c.28-.28.66-.44,1.06-.44h36.32c.83,0,1.5.67,1.5,1.5,0,1.06-.16,2.09-.45,3.06h5.17l16.44-16.44c.28-.28.66-.44,1.06-.44h0c.4,0,.78.16,1.06.44,4.13,4.14,4.13,10.87,0,15.01l-23.83,23.75c-.28.28-.66.44-1.06.44h-32.81l-10.32,10.41c-.28.28-.66.44-1.06.44h0Zm-11.44-15.06l11.43,11.43,9.7-9.78c.28-.28.67-.44,1.07-.44h32.81l23.39-23.31c2.6-2.6,2.92-6.64.95-9.6l-15.72,15.72c-.28.28-.66.44-1.06.44h-7.24c-1.92,2.75-5.11,4.56-8.72,4.56h-12.04c-.83,0-1.5-.67-1.5-1.5s.67-1.5,1.5-1.5h12.04c3.69,0,6.77-2.63,7.47-6.12h-34.05l-20.04,20.11Z"/>
        <rect class="cls-2" x="50.45" y="30.64" width="3" height="20.18" transform="translate(-13.58 48.66) rotate(-45)"/>
        <rect class="cls-2" x="41.01" y="44.8" width="3" height="20.18" transform="translate(-18.09 88.76) rotate(-81.44)"/>
        <rect class="cls-2" x="67.76" y="21.19" width="3" height="20.18" transform="translate(-4.89 14.63) rotate(-11.65)"/>
        <g id="Layer_2-2" data-name="Layer 2">
          <g id="Layer_1-2" data-name="Layer 1-2">
            <g id="Layer_2-2" data-name="Layer 2-2">
              <g id="layer">
                <path class="cls-2" d="m88.69,101.18c-.33,0-.66-.11-.93-.32-.48-.37-11.65-9.17-12.87-10.17-.8-.67-1.61-1.33-2.41-1.99-4.07-3.33-8.27-6.78-11.51-11.08-2.43-3.45-3.68-7.46-3.65-11.64,0-10.26,7.59-18.62,16.91-18.62,5.9.07,11.32,3.09,14.49,7.91,3.12-4.89,8.52-7.91,14.46-7.91,9.33-.02,16.95,8.32,16.95,18.64.04,4.11-1.34,8.18-3.9,11.42,0,0-.01.02-.02.03-2.11,2.55-4.48,4.9-7.04,7-2.3,2.07-4.71,4.16-7.04,6.18l-2.21,1.91c-3.54,3.09-10.04,8.12-10.32,8.34-.27.21-.59.31-.92.31Zm-14.47-50.82c-7.65,0-13.9,7.02-13.9,15.64-.03,3.56,1.03,6.96,3.07,9.86,3,3.97,7.06,7.3,10.99,10.52.81.66,1.62,1.33,2.42,2,.98.81,9.12,7.21,11.89,9.4,1.96-1.53,6.56-5.15,9.26-7.51l2.21-1.92c2.32-2.01,4.72-4.09,7.05-6.18,2.46-2.01,4.68-4.23,6.67-6.62,2.13-2.7,3.28-6.09,3.25-9.53,0-8.64-6.22-15.65-13.86-15.65h-.08c-5.72,0-10.84,3.39-13.06,8.66-.23.55-.77.91-1.37.92h-.01c-.59,0-1.13-.35-1.37-.89-2.3-5.21-7.47-8.62-13.16-8.69Zm40.84,26.13h0,0Z"/>
              </g>
            </g>
          </g>
        </g>
        <path class="cls-2" d="m92.88,71.2c-.1-.9-.52-1.6-1.26-2.1-.74-.5-1.66-.75-2.78-.75-.8,0-1.49.12-2.07.38s-1.04.59-1.36,1.03-.48.93-.48,1.48c0,.46.11.86.33,1.2s.51.62.87.84c.36.23.74.41,1.16.56s.81.27,1.19.37l1.9.5c.62.15,1.26.36,1.91.62s1.26.6,1.82,1.03,1.01.95,1.36,1.58.52,1.38.52,2.25c0,1.1-.28,2.08-.85,2.94-.57.86-1.39,1.53-2.46,2.03-1.08.49-2.37.74-3.9.74s-2.72-.23-3.79-.7c-1.07-.46-1.9-1.12-2.5-1.97-.6-.85-.94-1.87-1-3.04h2.95c.06.7.29,1.29.69,1.75.4.47.92.81,1.55,1.04.63.23,1.32.34,2.08.34.83,0,1.57-.13,2.22-.39.65-.26,1.16-.63,1.54-1.1s.56-1.03.56-1.66c0-.58-.16-1.05-.49-1.42-.33-.37-.77-.67-1.32-.91-.55-.24-1.18-.45-1.88-.64l-2.3-.63c-1.56-.43-2.8-1.05-3.71-1.88-.91-.82-1.37-1.92-1.37-3.27,0-1.12.3-2.1.91-2.94.61-.84,1.43-1.49,2.47-1.96,1.04-.47,2.21-.7,3.52-.7s2.49.23,3.5.69,1.81,1.1,2.39,1.91c.58.81.89,1.74.91,2.78h-2.84Zm-4.88,16.8v-24.36h1.56v24.36h-1.56Z"/>
      </g>
    </g>
  </g>
</svg>