<?xml version="1.0" encoding="UTF-8"?>
<svg id="Layer_2" data-name="Layer 2" xmlns="http://www.w3.org/2000/svg" viewBox="0 0 98.44 12.77">
  <defs>
    <style>
      .cls-1 {
        fill-rule: evenodd;
      }

      .cls-1, .cls-2 {
        fill: #2352f5;
        stroke-width: 0px;
      }
    </style>
  </defs>
  <g id="Layer_1-2" data-name="Layer 1">
    <g>
      <polygon class="cls-1" points="91.03 11.36 95.61 6.77 91.03 2.18 92.44 .77 98.44 6.77 92.44 12.77 91.03 11.36"/>
      <g>
        <path class="cls-2" d="m9.16,4.15h-2.18c-.04-.28-.12-.53-.24-.75-.12-.22-.28-.41-.47-.56-.19-.16-.41-.28-.66-.36-.25-.08-.52-.12-.81-.12-.53,0-.99.13-1.38.39-.39.26-.69.64-.91,1.13-.22.5-.32,1.1-.32,1.8s.11,1.34.33,1.83c.22.49.52.87.91,1.12.39.25.84.38,1.36.38.29,0,.56-.04.8-.11.25-.08.47-.19.66-.34s.35-.33.48-.54c.13-.21.22-.45.27-.73h2.18c-.06.48-.2.93-.42,1.36s-.52.82-.9,1.16-.82.61-1.34.81-1.1.3-1.76.3c-.91,0-1.72-.21-2.43-.62-.71-.41-1.28-1.01-1.69-1.78-.41-.78-.62-1.72-.62-2.83s.21-2.05.63-2.83c.42-.78.98-1.37,1.7-1.78.72-.41,1.52-.61,2.42-.61.59,0,1.14.08,1.64.25.51.17.95.41,1.34.72.39.32.71.7.96,1.16.25.46.41.98.47,1.57Z"/>
        <path class="cls-2" d="m14.32,10.91c-.77,0-1.44-.17-2-.5-.56-.33-1-.79-1.3-1.38s-.46-1.28-.46-2.06.15-1.48.46-2.07c.3-.59.74-1.05,1.3-1.38.56-.33,1.23-.49,2-.49s1.44.16,2,.49c.56.33,1,.79,1.3,1.38.3.59.46,1.28.46,2.07s-.15,1.47-.46,2.06-.74,1.05-1.3,1.38c-.56.33-1.23.5-2,.5Zm0-1.64c.35,0,.64-.1.88-.3.24-.2.41-.47.53-.82.12-.35.18-.74.18-1.19s-.06-.84-.18-1.19c-.12-.35-.3-.62-.53-.83s-.53-.3-.88-.3-.65.1-.89.3-.42.48-.54.83c-.12.35-.18.74-.18,1.19s.06.84.18,1.19c.12.35.3.62.54.82.24.2.54.3.89.3Z"/>
        <path class="cls-2" d="m21.77,6.35v4.42h-2.12V3.13h2.02v1.35h.09c.17-.44.45-.8.85-1.06.4-.26.88-.39,1.45-.39.53,0,.99.12,1.39.35s.7.56.92.99c.22.43.33.94.33,1.53v4.86h-2.12v-4.48c0-.47-.12-.83-.36-1.1-.24-.26-.58-.39-1-.39-.29,0-.54.06-.75.18-.22.12-.39.3-.51.53-.12.23-.18.51-.19.84Z"/>
        <path class="cls-2" d="m32,10.91c-.78,0-1.46-.17-2.02-.5s-.99-.8-1.29-1.39c-.3-.59-.45-1.28-.45-2.05s.15-1.47.46-2.06c.3-.59.73-1.05,1.29-1.39.56-.33,1.23-.5,2-.5.67,0,1.25.12,1.75.36.5.24.9.58,1.19,1.02s.45.95.48,1.54h-2c-.06-.38-.2-.69-.44-.92-.24-.23-.55-.35-.94-.35-.33,0-.61.09-.86.27-.24.18-.43.44-.57.77s-.2.75-.2,1.23.07.9.2,1.24c.13.34.32.6.57.78s.53.27.86.27c.24,0,.46-.05.65-.15.19-.1.36-.24.48-.43.13-.19.21-.42.25-.69h2c-.03.58-.19,1.1-.47,1.54-.28.44-.67.79-1.17,1.04-.5.25-1.09.37-1.76.37Z"/>
        <path class="cls-2" d="m39.09.58v10.18h-2.12V.58h2.12Z"/>
        <path class="cls-2" d="m45.87,7.51V3.13h2.12v7.64h-2.03v-1.39h-.08c-.17.45-.46.81-.86,1.08-.4.27-.89.41-1.46.41-.51,0-.96-.12-1.35-.35-.39-.23-.69-.56-.91-.99-.22-.43-.33-.94-.33-1.54V3.13h2.12v4.48c0,.45.12.81.36,1.07.24.26.56.39.96.39.26,0,.49-.06.72-.18.22-.12.4-.29.54-.52.14-.23.2-.52.2-.86Z"/>
        <path class="cls-2" d="m56.23,5.3l-1.94.12c-.03-.17-.1-.32-.21-.45-.11-.13-.25-.24-.43-.32-.18-.08-.39-.12-.63-.12-.33,0-.61.07-.83.21-.23.14-.34.32-.34.55,0,.18.07.34.22.46.15.13.4.23.75.3l1.38.28c.74.15,1.3.4,1.66.74.36.34.55.78.55,1.33,0,.5-.15.94-.44,1.32-.29.38-.69.67-1.2.88-.51.21-1.09.32-1.76.32-1.01,0-1.82-.21-2.41-.63-.6-.42-.95-1-1.05-1.73l2.08-.11c.06.31.22.54.46.7.24.16.55.24.93.24s.67-.07.9-.22c.23-.14.34-.33.34-.56,0-.19-.08-.35-.24-.48-.16-.12-.4-.22-.74-.29l-1.32-.26c-.75-.15-1.3-.41-1.66-.78-.36-.37-.54-.84-.54-1.41,0-.49.13-.91.4-1.27s.64-.63,1.13-.82c.49-.19,1.06-.29,1.71-.29.96,0,1.72.2,2.28.61.56.41.88.96.97,1.67Z"/>
        <path class="cls-2" d="m59,2.14c-.32,0-.58-.1-.81-.32-.22-.21-.34-.46-.34-.76s.11-.54.34-.75c.22-.21.49-.32.81-.32s.58.11.81.32c.22.21.34.46.34.75s-.11.55-.34.76c-.22.21-.49.32-.81.32Zm-1.06,8.62V3.13h2.12v7.64h-2.12Z"/>
        <path class="cls-2" d="m65.39,10.91c-.77,0-1.44-.17-2-.5-.56-.33-1-.79-1.3-1.38s-.46-1.28-.46-2.06.15-1.48.46-2.07c.3-.59.74-1.05,1.3-1.38.56-.33,1.23-.49,2-.49s1.44.16,2,.49c.56.33,1,.79,1.3,1.38.3.59.46,1.28.46,2.07s-.15,1.47-.46,2.06-.74,1.05-1.3,1.38c-.56.33-1.23.5-2,.5Zm0-1.64c.35,0,.64-.1.88-.3.24-.2.41-.47.53-.82.12-.35.18-.74.18-1.19s-.06-.84-.18-1.19c-.12-.35-.3-.62-.53-.83s-.53-.3-.88-.3-.65.1-.89.3-.42.48-.54.83c-.12.35-.18.74-.18,1.19s.06.84.18,1.19c.12.35.3.62.54.82.24.2.54.3.89.3Z"/>
        <path class="cls-2" d="m72.85,6.35v4.42h-2.12V3.13h2.02v1.35h.09c.17-.44.45-.8.85-1.06.4-.26.88-.39,1.45-.39.53,0,.99.12,1.39.35s.7.56.92.99c.22.43.33.94.33,1.53v4.86h-2.12v-4.48c0-.47-.12-.83-.36-1.1-.24-.26-.58-.39-1-.39-.29,0-.54.06-.75.18-.22.12-.39.3-.51.53-.12.23-.18.51-.19.84Z"/>
      </g>
    </g>
  </g>
</svg>