<?xml version="1.0" encoding="UTF-8"?>
<svg id="Layer_2" data-name="Layer 2" xmlns="http://www.w3.org/2000/svg" viewBox="0 0 2 1663.89">
  <defs>
    <style>
      .cls-1 {
        fill: #b3b3b3;
        stroke-width: 0px;
      }
    </style>
  </defs>
  <g id="Layer_1-2" data-name="Layer 1">
    <g>
      <rect class="cls-1" width="2" height="6"/>
      <path class="cls-1" d="m2,1645.83H0v-12.06h2v12.06Zm0-24.12H0v-12.06h2v12.06Zm0-24.12H0v-12.06h2v12.06Zm0-24.12H0v-12.06h2v12.06Zm0-24.12H0v-12.06h2v12.06Zm0-24.12H0v-12.06h2v12.06Zm0-24.12H0v-12.06h2v12.06Zm0-24.12H0v-12.06h2v12.06Zm0-24.12H0v-12.06h2v12.06Zm0-24.12H0v-12.06h2v12.06Zm0-24.12H0v-12.06h2v12.06Zm0-24.12H0v-12.06h2v12.06Zm0-24.12H0v-12.06h2v12.06Zm0-24.12H0v-12.06h2v12.06Zm0-24.12H0v-12.06h2v12.06Zm0-24.12H0v-12.06h2v12.06Zm0-24.12H0v-12.06h2v12.06Zm0-24.12H0v-12.06h2v12.06Zm0-24.12H0v-12.06h2v12.06Zm0-24.12H0v-12.06h2v12.06Zm0-24.12H0v-12.06h2v12.06Zm0-24.12H0v-12.06h2v12.06Zm0-24.12H0v-12.06h2v12.06Zm0-24.12H0v-12.06h2v12.06Zm0-24.12H0v-12.06h2v12.06Zm0-24.12H0v-12.06h2v12.06Zm0-24.12H0v-12.06h2v12.06Zm0-24.12H0v-12.06h2v12.06Zm0-24.12H0v-12.06h2v12.06Zm0-24.12H0v-12.06h2v12.06Zm0-24.11H0v-12.06h2v12.06Zm0-24.12H0v-12.06h2v12.06Zm0-24.12H0v-12.06h2v12.06Zm0-24.11H0v-12.06h2v12.06Zm0-24.12H0v-12.06h2v12.06Zm0-24.12H0v-12.06h2v12.06Zm0-24.12H0v-12.06h2v12.06Zm0-24.12H0v-12.06h2v12.06Zm0-24.11H0v-12.06h2v12.06Zm0-24.12H0v-12.06h2v12.06Zm0-24.12H0v-12.06h2v12.06Zm0-24.11H0v-12.06h2v12.06Zm0-24.12H0v-12.06h2v12.06Zm0-24.12H0v-12.06h2v12.06Zm0-24.12H0v-12.06h2v12.06Zm0-24.12H0v-12.06h2v12.06Zm0-24.11H0v-12.06h2v12.06Zm0-24.12H0v-12.06h2v12.06Zm0-24.12H0v-12.06h2v12.06Zm0-24.12H0v-12.06h2v12.06Zm0-24.11H0v-12.06h2v12.06Zm0-24.12H0v-12.06h2v12.06Zm0-24.12H0v-12.06h2v12.06Zm0-24.12H0v-12.06h2v12.06Zm0-24.11H0v-12.06h2v12.06Zm0-24.12H0v-12.06h2v12.06Zm0-24.12H0v-12.06h2v12.06Zm0-24.12H0v-12.06h2v12.06Zm0-24.11H0v-12.06h2v12.06Zm0-24.12H0v-12.06h2v12.06Zm0-24.12H0v-12.06h2v12.06Zm0-24.12H0v-12.06h2v12.06Zm0-24.11H0v-12.06h2v12.06Zm0-24.12H0v-12.06h2v12.06Zm0-24.12H0v-12.06h2v12.06Zm0-24.12H0v-12.06h2v12.06Zm0-24.11H0v-12.06h2v12.06Zm0-24.12H0v-12.06h2v12.06Z"/>
      <rect class="cls-1" y="1657.89" width="2" height="6"/>
    </g>
  </g>
</svg>