<?xml version="1.0" encoding="UTF-8"?>
<svg id="Layer_2" data-name="Layer 2" xmlns="http://www.w3.org/2000/svg" viewBox="0 0 116.99 120.51">
  <defs>
    <style>
      .cls-1 {
        fill: #2352f5;
        stroke-width: 0px;
      }
    </style>
  </defs>
  <g id="Layer_1-2" data-name="Layer 1">
    <g>
      <g id="other_2" data-name="other 2">
        <path class="cls-1" d="m60.92,114.86c-.38,0-.75-.15-1.03-.41-.3-.28-.47-.68-.47-1.09v-18.35h-17.24v15.9c0,.48-.23.93-.61,1.21-.39.28-.88.37-1.34.22C15.79,104.67-.75,81.38.03,55.71c.44-14.75,6.54-28.65,17.17-39.11C27.82,6.14,41.8.25,56.56.02c.3,0,.59,0,.89,0C85.63.01,109.98,20.78,114.29,48.65c.07.43-.06.87-.34,1.21-.29.33-.7.52-1.14.52h-16.04v48.41c0,.42-.18.82-.49,1.1-2.51,2.31-5.25,4.4-8.16,6.23-.46.29-1.04.31-1.52.04-.48-.26-.77-.77-.77-1.31v-31.16h-17.23v38.96c0,.73-.53,1.35-1.24,1.48-2.09.36-4.23.61-6.34.73-.03,0-.06,0-.09,0Zm-20.24-22.85h20.24c.83,0,1.5.67,1.5,1.5v18.24c1.06-.09,2.12-.22,3.17-.38v-39.18c0-.83.67-1.5,1.5-1.5h20.23c.83,0,1.5.67,1.5,1.5v29.86c1.72-1.21,3.38-2.53,4.94-3.93v-49.25c0-.83.67-1.5,1.5-1.5h15.76C106.17,21.56,83.12,2.6,56.61,3.02c-13.99.22-27.24,5.8-37.31,15.72C9.22,28.66,3.44,41.83,3.02,55.8c-.71,23.64,14.06,45.15,36.16,53.02v-15.32c0-.83.67-1.5,1.5-1.5Z"/>
        <path class="cls-1" d="m60.92,114.43c-.32,0-.63-.1-.89-.29-.38-.28-.61-.73-.61-1.21v-17.92h-17.24v3.73c0,.7-.48,1.31-1.17,1.46-.69.16-1.38-.18-1.69-.81-5.2-10.78-8.19-26.05-8.19-41.9C31.15,25.26,42.71,0,57.48,0s26.33,25.25,26.33,57.48c0,5.04-.29,10.04-.87,14.88-.09.75-.73,1.32-1.49,1.32h-12.85v35.42c0,.41-.17.8-.46,1.09-2.13,2.04-4.41,3.44-6.76,4.17-.15.05-.29.07-.44.07Zm-20.24-22.42h20.24c.83,0,1.5.67,1.5,1.5v17.18c1.08-.56,2.13-1.31,3.17-2.23v-36.26c0-.83.67-1.5,1.5-1.5h13.01c.46-4.3.7-8.74.7-13.2,0-29.53-10.68-54.48-23.33-54.48s-23.33,24.95-23.33,54.48c0,12.79,1.98,25.15,5.52,34.92.27-.25.63-.4,1.02-.4Z"/>
        <path class="cls-1" d="m60.92,120.51h-20.24c-.83,0-1.5-.67-1.5-1.5v-25.5c0-.83.67-1.5,1.5-1.5h20.24c.83,0,1.5.67,1.5,1.5v25.5c0,.83-.67,1.5-1.5,1.5Zm-18.74-3h17.24v-22.5h-17.24v22.5Z"/>
        <path class="cls-1" d="m57.48,95.01c-.83,0-1.5-.67-1.5-1.5V1.51c0-.83.67-1.51,1.5-1.51s1.5.66,1.5,1.49v92.02c0,.83-.67,1.5-1.5,1.5Z"/>
        <path class="cls-1" d="m94.99,58.99H1.99c-.83,0-1.5-.67-1.5-1.5s.67-1.5,1.5-1.5h93.01c.83,0,1.5.67,1.5,1.5s-.67,1.5-1.5,1.5Z"/>
      </g>
      <path class="cls-1" d="m87.33,120.51h-20.23c-.83,0-1.5-.67-1.5-1.5v-46.82c0-.83.67-1.5,1.5-1.5h20.23c.83,0,1.5.67,1.5,1.5v46.82c0,.83-.67,1.5-1.5,1.5Zm-18.73-3h17.23v-43.82h-17.23v43.82Z"/>
      <path class="cls-1" d="m115.49,120.51h-20.23c-.83,0-1.5-.67-1.5-1.5V48.88c0-.83.67-1.5,1.5-1.5h20.23c.83,0,1.5.67,1.5,1.5v70.13c0,.83-.67,1.5-1.5,1.5Zm-18.73-3h17.23V50.38h-17.23v67.13Z"/>
    </g>
  </g>
</svg>