<?xml version="1.0" encoding="UTF-8"?>
<svg id="Layer_2" data-name="Layer 2" xmlns="http://www.w3.org/2000/svg" viewBox="0 0 164 164">
  <defs>
    <style>
      .cls-1 {
        stroke: #fff;
        stroke-linecap: round;
        stroke-linejoin: round;
        stroke-width: 2px;
      }

      .cls-1, .cls-2 {
        fill: #fff;
      }

      .cls-3 {
        fill: #056eff;
      }

      .cls-3, .cls-2 {
        stroke-width: 0px;
      }
    </style>
  </defs>
  <g id="Layer_1-2" data-name="Layer 1">
    <g>
      <circle class="cls-3" cx="82" cy="82" r="82"/>
      <g>
        <path class="cls-2" d="m134.06,90.28c-.82,0-1.62-.12-2.37-.35-3.4,21.38-20.25,38.31-41.58,41.83-.49.08-.99.16-1.49.22-.51.07-1.02.13-1.54.18.22.55.33,1.15.33,1.77,0,.43-.05.84-.16,1.23.52-.05,1.05-.11,1.57-.18.52-.07,1.03-.14,1.55-.23,22.75-3.64,40.75-21.71,44.3-44.49-.2.01-.4.02-.61.02Zm-43.69-61.03c-.52-.09-1.03-.16-1.55-.23s-1.05-.13-1.57-.18c.11.39.16.81.16,1.23,0,.62-.11,1.22-.33,1.77.52.05,1.03.11,1.54.18.5.07,1,.14,1.49.22,21.49,3.54,38.43,20.71,41.65,42.3.73-.21,1.5-.33,2.3-.33.23,0,.46.01.68.03-3.35-23.02-21.45-41.32-44.37-44.99Zm-12.73,103c-.52-.04-1.03-.09-1.54-.15-.5-.06-1-.12-1.5-.2-21.75-3.15-39.04-20.24-42.52-41.9-.68.18-1.39.28-2.13.28-.29,0-.58-.02-.86-.04,3.59,23.13,22.07,41.4,45.31,44.66.52.08,1.03.15,1.55.2.52.06,1.04.11,1.57.15-.12-.42-.18-.86-.18-1.32,0-.59.1-1.16.3-1.68Zm-46.19-50.25c0-1.51.07-3.01.2-4.49-.53-.19-1.1-.3-1.7-.3-.45,0-.88.06-1.29.18-.14,1.52-.21,3.06-.21,4.61,0,1.72.08,3.43.25,5.11h0c.4.12.82.17,1.25.17.61,0,1.2-.11,1.74-.32-.16-1.63-.24-3.29-.24-4.96Zm45.89-51.93c0-.46.06-.9.18-1.32-.53.04-1.05.09-1.57.15-.52.05-1.03.12-1.55.2-23.4,3.28-41.99,21.8-45.39,45.16.31-.03.62-.05.94-.05.71,0,1.4.09,2.06.26,3.29-21.87,20.69-39.19,42.59-42.37.5-.08,1-.14,1.5-.2.51-.06,1.02-.11,1.54-.15-.2-.52-.3-1.09-.3-1.68Z"/>
        <g>
          <path class="cls-2" d="m88.82,29.02c-.5-3.1-3.2-5.48-6.45-5.48s-5.87,2.31-6.42,5.36c-.07.38-.11.77-.11,1.17,0,.64.09,1.25.26,1.83.79,2.72,3.3,4.71,6.27,4.71s5.42-1.93,6.25-4.59c.19-.62.29-1.27.29-1.95,0-.36-.03-.71-.09-1.05Zm-6.45,6.09c-2.18,0-4.05-1.4-4.73-3.36-.2-.52-.3-1.09-.3-1.68,0-.46.06-.9.18-1.32.58-2.13,2.54-3.71,4.85-3.71s4.34,1.62,4.88,3.8c.11.39.16.81.16,1.23,0,.62-.11,1.22-.33,1.77-.71,1.91-2.55,3.27-4.71,3.27Z"/>
          <path class="cls-2" d="m90.36,29.25c-.41-4.05-3.85-7.21-8-7.21s-7.49,3.09-7.97,7.06c-.04.32-.06.64-.06.97,0,.7.09,1.38.26,2.03.9,3.45,4.04,6.01,7.77,6.01s6.79-2.49,7.74-5.87c.2-.69.3-1.42.3-2.17,0-.28-.01-.55-.04-.82Zm-2.96.82c0,.62-.11,1.22-.33,1.77-.71,1.91-2.55,3.27-4.71,3.27s-4.05-1.4-4.73-3.36c-.2-.52-.3-1.09-.3-1.68,0-.46.06-.9.18-1.32.58-2.13,2.54-3.71,4.85-3.71s4.34,1.62,4.88,3.8c.11.39.16.81.16,1.23Z"/>
        </g>
        <g>
          <path class="cls-2" d="m88.61,131.98c-.83-2.65-3.32-4.58-6.25-4.58s-5.48,1.98-6.27,4.7c-.17.58-.26,1.19-.26,1.83,0,.4.04.79.11,1.17.55,3.05,3.22,5.36,6.42,5.36s5.95-2.37,6.45-5.48c.06-.34.09-.69.09-1.05,0-.68-.1-1.33-.29-1.95Zm-6.25,6.98c-2.31,0-4.27-1.57-4.85-3.71-.12-.42-.18-.86-.18-1.32,0-.59.1-1.16.3-1.68.68-1.95,2.55-3.35,4.73-3.35s4,1.36,4.71,3.26c.22.55.33,1.15.33,1.77,0,.43-.05.84-.16,1.23-.54,2.19-2.53,3.8-4.88,3.8Z"/>
          <path class="cls-2" d="m90.11,131.76c-.95-3.38-4.06-5.86-7.74-5.86s-6.87,2.55-7.77,6c-.17.65-.26,1.33-.26,2.03,0,.33.02.65.06.97.48,3.97,3.87,7.06,7.97,7.06s7.59-3.16,8-7.21c.03-.27.04-.54.04-.82,0-.75-.1-1.48-.3-2.17Zm-7.74,7.2c-2.31,0-4.27-1.57-4.85-3.71-.12-.42-.18-.86-.18-1.32,0-.59.1-1.16.3-1.68.68-1.95,2.55-3.35,4.73-3.35s4,1.36,4.71,3.26c.22.55.33,1.15.33,1.77,0,.43-.05.84-.16,1.23-.54,2.19-2.53,3.8-4.88,3.8Z"/>
        </g>
        <path class="cls-2" d="m139.09,82.25c0,2.43-1.74,4.47-4.04,4.93-.12.03-.24.05-.37.06-.2.03-.41.04-.62.04-.71,0-1.38-.14-1.99-.41-1.79-.77-3.05-2.55-3.05-4.62s1.28-3.88,3.09-4.64h0c.6-.26,1.26-.4,1.95-.4.23,0,.45.02.67.05.13.01.25.03.37.06,2.28.48,3.99,2.51,3.99,4.93Z"/>
        <path class="cls-2" d="m34.98,82.25c0,2.16-1.37,4.01-3.3,4.71-.54.21-1.13.32-1.74.32-.43,0-.85-.05-1.25-.16h0c-2.17-.56-3.78-2.53-3.78-4.87s1.59-4.3,3.74-4.86c.41-.12.84-.18,1.29-.18.6,0,1.17.11,1.7.3,1.95.69,3.34,2.56,3.34,4.74Z"/>
        <path class="cls-2" d="m111.64,104.94h-58.54c-.54,0-1.03-.29-1.3-.75-.27-.46-.27-1.04,0-1.5l29.27-50.7c.27-.46.76-.75,1.3-.75s1.03.29,1.3.75l29.27,50.7c.27.46.27,1.04,0,1.5-.27.46-.76.75-1.3.75Zm-55.94-3h53.35l-26.67-46.2-26.67,46.2Z"/>
        <path class="cls-1" d="m81.1,90.93c0-.35.11-.65.34-.9.23-.25.54-.37.93-.37s.71.12.94.37c.23.24.35.54.35.9s-.12.63-.35.87c-.23.23-.55.35-.94.35s-.7-.12-.93-.35c-.23-.23-.34-.52-.34-.87Zm2.03-5.21h-1.72l-.09-16.3h1.92l-.11,16.3Z"/>
      </g>
    </g>
  </g>
</svg>