<?xml version="1.0" encoding="UTF-8"?>
<svg id="Layer_2" data-name="Layer 2" xmlns="http://www.w3.org/2000/svg" viewBox="0 0 227.08 13.18">
  <defs>
    <style>
      .cls-1 {
        fill-rule: evenodd;
      }

      .cls-1, .cls-2 {
        fill: #2352f5;
        stroke-width: 0px;
      }
    </style>
  </defs>
  <g id="Layer_1-2" data-name="Layer 1">
    <g>
      <polygon class="cls-1" points="7.41 10.92 2.83 6.33 7.41 1.74 6 .33 0 6.33 6 12.33 7.41 10.92"/>
      <g>
        <path class="cls-2" d="m21.15,10.32V.14h4.08c.75,0,1.37.11,1.87.33.5.22.88.53,1.13.92s.38.84.38,1.36c0,.4-.08.75-.24,1.05s-.38.55-.65.74c-.28.19-.59.33-.95.41v.1c.39.02.75.13,1.09.33s.62.49.83.85c.21.36.32.79.32,1.3,0,.54-.13,1.02-.4,1.44-.27.42-.66.76-1.18,1s-1.16.37-1.92.37h-4.35Zm2.15-5.92h1.6c.29,0,.56-.05.79-.16.23-.1.41-.25.55-.44.13-.19.2-.42.2-.69,0-.37-.13-.66-.39-.89-.26-.23-.63-.34-1.11-.34h-1.63v2.52Zm0,4.16h1.75c.6,0,1.04-.12,1.31-.35.27-.23.41-.54.41-.92,0-.28-.07-.53-.2-.75-.14-.22-.33-.38-.58-.51-.25-.12-.55-.18-.89-.18h-1.8v2.71Z"/>
        <path class="cls-2" d="m32.74,10.47c-.49,0-.92-.09-1.3-.26-.38-.17-.68-.42-.9-.76-.22-.34-.33-.76-.33-1.26,0-.42.08-.78.23-1.07.16-.29.37-.52.64-.7s.57-.31.92-.4c.34-.09.7-.15,1.08-.19.44-.05.8-.09,1.07-.13.27-.04.47-.1.59-.19.12-.08.18-.21.18-.37v-.03c0-.31-.1-.56-.3-.73-.2-.17-.48-.26-.84-.26-.38,0-.68.08-.91.25s-.38.38-.45.63l-1.96-.16c.1-.46.29-.87.59-1.21.29-.34.67-.6,1.13-.79.46-.18,1-.28,1.61-.28.42,0,.83.05,1.22.15.39.1.74.25,1.04.46.3.21.54.48.72.8s.26.72.26,1.17v5.15h-2.01v-1.06h-.06c-.12.24-.29.45-.49.63s-.45.32-.74.42c-.29.1-.62.15-1,.15Zm.61-1.46c.31,0,.59-.06.83-.19.24-.12.43-.29.56-.5.14-.21.2-.45.2-.72v-.81c-.07.04-.16.08-.27.12s-.24.07-.39.09-.28.05-.43.07-.27.04-.39.06c-.25.04-.47.09-.65.17-.19.08-.33.19-.43.32-.1.13-.15.3-.15.5,0,.29.11.51.32.66.21.15.48.23.8.23Z"/>
        <path class="cls-2" d="m42.33,10.47c-.78,0-1.46-.17-2.02-.5s-.99-.8-1.29-1.39c-.3-.59-.45-1.28-.45-2.05s.15-1.47.46-2.06c.3-.59.73-1.05,1.29-1.39.56-.33,1.23-.5,2-.5.67,0,1.25.12,1.75.36.5.24.9.58,1.19,1.02s.45.95.48,1.54h-2c-.06-.38-.2-.69-.44-.92-.24-.23-.55-.35-.94-.35-.33,0-.61.09-.86.27-.24.18-.43.44-.57.77s-.2.75-.2,1.23.07.9.2,1.24c.13.34.32.6.57.78s.53.27.86.27c.24,0,.46-.05.65-.15.19-.1.36-.24.48-.43.13-.19.21-.42.25-.69h2c-.03.58-.19,1.1-.47,1.54-.28.44-.67.79-1.17,1.04-.5.25-1.09.37-1.76.37Z"/>
        <path class="cls-2" d="m47.3,10.32V.14h2.12v10.18h-2.12Zm1.92-2.2v-2.54h.31l2.45-2.9h2.43l-3.29,3.84h-.5l-1.4,1.6Zm2.85,2.2l-2.25-3.33,1.41-1.5,3.32,4.82h-2.48Z"/>
        <path class="cls-2" d="m63.14,2.68v1.59h-4.6v-1.59h4.6Zm-3.55-1.83h2.12v7.12c0,.2.03.35.09.46s.14.18.25.23c.11.04.23.06.38.06.1,0,.2,0,.3-.03.1-.02.18-.03.23-.04l.33,1.58c-.11.03-.25.07-.45.12s-.43.07-.7.08c-.51.02-.96-.05-1.34-.2-.38-.16-.68-.4-.89-.73-.21-.33-.32-.74-.31-1.24V.86Z"/>
        <path class="cls-2" d="m68.17,10.47c-.77,0-1.44-.17-2-.5-.56-.33-1-.79-1.3-1.38s-.46-1.28-.46-2.06.15-1.48.46-2.07c.3-.59.74-1.05,1.3-1.38.56-.33,1.23-.49,2-.49s1.44.16,2,.49c.56.33,1,.79,1.3,1.38.3.59.46,1.28.46,2.07s-.15,1.47-.46,2.06-.74,1.05-1.3,1.38c-.56.33-1.23.5-2,.5Zm0-1.64c.35,0,.64-.1.88-.3.24-.2.41-.47.53-.82.12-.35.18-.74.18-1.19s-.06-.84-.18-1.19c-.12-.35-.3-.62-.53-.83s-.53-.3-.88-.3-.65.1-.89.3-.42.48-.54.83c-.12.35-.18.74-.18,1.19s.06.84.18,1.19c.12.35.3.62.54.82.24.2.54.3.89.3Z"/>
        <path class="cls-2" d="m79.14.14v10.18h-2.15V.14h2.15Z"/>
        <path class="cls-2" d="m83.19,5.91v4.42h-2.12V2.68h2.02v1.35h.09c.17-.44.45-.8.85-1.06.4-.26.88-.39,1.45-.39.53,0,.99.12,1.39.35s.7.56.92.99c.22.43.33.94.33,1.53v4.86h-2.12v-4.48c0-.47-.12-.83-.36-1.1-.24-.26-.58-.39-1-.39-.29,0-.54.06-.75.18-.22.12-.39.3-.51.53-.12.23-.18.51-.19.84Z"/>
        <path class="cls-2" d="m97.09,2.68l-2.67,7.64h-2.39l-2.67-7.64h2.24l1.59,5.46h.08l1.58-5.46h2.24Z"/>
        <path class="cls-2" d="m101.85,10.47c-.79,0-1.46-.16-2.03-.48-.57-.32-1-.77-1.31-1.36-.3-.59-.46-1.29-.46-2.09s.15-1.47.46-2.07c.3-.59.74-1.06,1.29-1.39.56-.33,1.21-.5,1.96-.5.5,0,.97.08,1.41.24.44.16.82.4,1.14.72.33.32.58.73.76,1.21s.27,1.05.27,1.7v.58h-6.45v-1.31h4.46c0-.3-.07-.58-.2-.81s-.32-.42-.55-.55c-.23-.13-.5-.2-.81-.2s-.61.07-.85.22-.44.34-.58.59-.21.52-.21.82v1.25c0,.38.07.7.21.98.14.28.34.49.6.64.26.15.57.22.92.22.24,0,.45-.03.65-.1.2-.07.36-.17.5-.3.14-.13.25-.29.32-.49l1.96.13c-.1.47-.3.88-.61,1.23s-.7.62-1.18.82c-.48.19-1.04.29-1.67.29Z"/>
        <path class="cls-2" d="m113.29,4.86l-1.94.12c-.03-.17-.1-.32-.21-.45-.11-.13-.25-.24-.43-.32-.18-.08-.39-.12-.63-.12-.33,0-.61.07-.83.21-.23.14-.34.32-.34.55,0,.18.07.34.22.46.15.13.4.23.75.3l1.38.28c.74.15,1.3.4,1.66.74.36.34.55.78.55,1.33,0,.5-.15.94-.44,1.32-.29.38-.69.67-1.2.88-.51.21-1.09.32-1.76.32-1.01,0-1.82-.21-2.41-.63-.6-.42-.95-1-1.05-1.73l2.08-.11c.06.31.22.54.46.7.24.16.55.24.93.24s.67-.07.9-.22c.23-.14.34-.33.34-.56,0-.19-.08-.35-.24-.48-.16-.12-.4-.22-.74-.29l-1.32-.26c-.75-.15-1.3-.41-1.66-.78-.36-.37-.54-.84-.54-1.41,0-.49.13-.91.4-1.27s.64-.63,1.13-.82c.49-.19,1.06-.29,1.71-.29.96,0,1.72.2,2.28.61.56.41.88.96.97,1.67Z"/>
        <path class="cls-2" d="m119.05,2.68v1.59h-4.6v-1.59h4.6Zm-3.55-1.83h2.12v7.12c0,.2.03.35.09.46s.14.18.25.23c.11.04.23.06.38.06.1,0,.2,0,.3-.03.1-.02.18-.03.23-.04l.33,1.58c-.11.03-.25.07-.45.12s-.43.07-.7.08c-.51.02-.96-.05-1.34-.2-.38-.16-.68-.4-.89-.73-.21-.33-.32-.74-.31-1.24V.86Z"/>
        <path class="cls-2" d="m120.63,10.32V2.68h2.02v1.35h.09c.16-.45.42-.8.8-1.06.37-.26.81-.39,1.33-.39s.97.13,1.34.39c.37.26.61.61.74,1.06h.08c.16-.44.44-.79.85-1.05s.89-.39,1.45-.39c.71,0,1.29.23,1.74.68.45.45.67,1.09.67,1.92v5.14h-2.11v-4.72c0-.42-.11-.74-.34-.96-.23-.21-.51-.32-.85-.32-.38,0-.68.12-.9.37-.22.24-.32.56-.32.96v4.66h-2.05v-4.76c0-.38-.11-.67-.32-.89-.21-.22-.5-.33-.84-.33-.24,0-.45.06-.63.18-.19.12-.34.28-.45.49-.11.21-.16.46-.16.74v4.58h-2.12Z"/>
        <path class="cls-2" d="m137.07,10.47c-.79,0-1.46-.16-2.03-.48-.57-.32-1-.77-1.31-1.36-.3-.59-.46-1.29-.46-2.09s.15-1.47.46-2.07c.3-.59.74-1.06,1.29-1.39.56-.33,1.21-.5,1.96-.5.5,0,.97.08,1.41.24.44.16.82.4,1.14.72.33.32.58.73.76,1.21s.27,1.05.27,1.7v.58h-6.45v-1.31h4.46c0-.3-.07-.58-.2-.81s-.32-.42-.55-.55c-.23-.13-.5-.2-.81-.2s-.61.07-.85.22-.44.34-.58.59-.21.52-.21.82v1.25c0,.38.07.7.21.98.14.28.34.49.6.64.26.15.57.22.92.22.24,0,.45-.03.65-.1.2-.07.36-.17.5-.3.14-.13.25-.29.32-.49l1.96.13c-.1.47-.3.88-.61,1.23s-.7.62-1.18.82c-.48.19-1.04.29-1.67.29Z"/>
        <path class="cls-2" d="m144.27,5.91v4.42h-2.12V2.68h2.02v1.35h.09c.17-.44.45-.8.85-1.06.4-.26.88-.39,1.45-.39.53,0,.99.12,1.39.35s.7.56.92.99c.22.43.33.94.33,1.53v4.86h-2.12v-4.48c0-.47-.12-.83-.36-1.1-.24-.26-.58-.39-1-.39-.29,0-.54.06-.75.18-.22.12-.39.3-.51.53-.12.23-.18.51-.19.84Z"/>
        <path class="cls-2" d="m155.12,2.68v1.59h-4.6v-1.59h4.6Zm-3.55-1.83h2.12v7.12c0,.2.03.35.09.46s.14.18.25.23c.11.04.23.06.38.06.1,0,.2,0,.3-.03.1-.02.18-.03.23-.04l.33,1.58c-.11.03-.25.07-.45.12s-.43.07-.7.08c-.51.02-.96-.05-1.34-.2-.38-.16-.68-.4-.89-.73-.21-.33-.32-.74-.31-1.24V.86Z"/>
        <path class="cls-2" d="m165.69,3.07c-.04-.4-.21-.71-.51-.93-.3-.22-.71-.33-1.23-.33-.35,0-.65.05-.89.15-.24.1-.43.23-.55.41-.13.17-.19.37-.19.59,0,.18.03.34.12.48.08.14.2.25.35.35s.32.18.52.25c.2.07.4.13.63.18l.92.22c.44.1.85.23,1.22.4.37.17.69.37.96.61.27.24.48.53.63.85.15.33.23.7.23,1.13,0,.62-.16,1.16-.47,1.62-.31.46-.76.81-1.35,1.06-.59.25-1.3.38-2.13.38s-1.54-.13-2.15-.38c-.61-.25-1.08-.63-1.42-1.12-.34-.5-.52-1.11-.53-1.84h2.08c.02.34.12.62.3.85.17.23.41.4.7.51s.63.17,1,.17.68-.05.95-.16c.27-.11.48-.25.63-.44.15-.19.22-.41.22-.65,0-.23-.07-.42-.2-.58-.13-.16-.33-.29-.59-.4s-.57-.21-.94-.3l-1.11-.28c-.86-.21-1.54-.54-2.03-.98-.5-.44-.74-1.04-.74-1.79,0-.62.16-1.16.5-1.62s.79-.82,1.37-1.08c.58-.26,1.25-.39,1.99-.39s1.42.13,1.98.39c.57.26,1.01.62,1.32,1.08s.48.99.49,1.6h-2.06Z"/>
        <path class="cls-2" d="m169.49,13.18V2.68h2.09v1.28h.09c.09-.21.23-.42.41-.63.18-.21.41-.39.7-.54s.64-.22,1.07-.22c.56,0,1.07.14,1.54.43s.85.73,1.13,1.31c.28.58.42,1.31.42,2.18s-.14,1.57-.41,2.16-.65,1.03-1.11,1.33c-.47.3-.99.45-1.57.45-.41,0-.76-.07-1.05-.2-.29-.14-.52-.31-.7-.51s-.32-.42-.42-.63h-.06v4.09h-2.12Zm2.07-6.68c0,.45.06.85.19,1.19s.31.6.55.79c.24.19.53.28.87.28s.64-.09.88-.29c.24-.19.42-.46.54-.8s.19-.73.19-1.18-.06-.83-.18-1.16c-.12-.33-.3-.6-.54-.79-.24-.19-.53-.28-.88-.28s-.64.09-.87.27c-.24.18-.42.44-.54.78-.13.33-.19.73-.19,1.18Z"/>
        <path class="cls-2" d="m182.03,10.47c-.79,0-1.46-.16-2.03-.48-.57-.32-1-.77-1.31-1.36-.3-.59-.46-1.29-.46-2.09s.15-1.47.46-2.07c.3-.59.74-1.06,1.29-1.39.56-.33,1.21-.5,1.96-.5.5,0,.97.08,1.41.24.44.16.82.4,1.14.72.33.32.58.73.76,1.21s.27,1.05.27,1.7v.58h-6.45v-1.31h4.46c0-.3-.07-.58-.2-.81s-.32-.42-.55-.55c-.23-.13-.5-.2-.81-.2s-.61.07-.85.22-.44.34-.58.59-.21.52-.21.82v1.25c0,.38.07.7.21.98.14.28.34.49.6.64.26.15.57.22.92.22.24,0,.45-.03.65-.1.2-.07.36-.17.5-.3.14-.13.25-.29.32-.49l1.96.13c-.1.47-.3.88-.61,1.23s-.7.62-1.18.82c-.48.19-1.04.29-1.67.29Z"/>
        <path class="cls-2" d="m190.56,10.47c-.78,0-1.46-.17-2.02-.5s-.99-.8-1.29-1.39c-.3-.59-.45-1.28-.45-2.05s.15-1.47.46-2.06c.3-.59.73-1.05,1.29-1.39.56-.33,1.23-.5,2-.5.67,0,1.25.12,1.75.36.5.24.9.58,1.19,1.02s.45.95.48,1.54h-2c-.06-.38-.2-.69-.44-.92-.24-.23-.55-.35-.94-.35-.33,0-.61.09-.86.27-.24.18-.43.44-.57.77s-.2.75-.2,1.23.07.9.2,1.24c.13.34.32.6.57.78s.53.27.86.27c.24,0,.46-.05.65-.15.19-.1.36-.24.48-.43.13-.19.21-.42.25-.69h2c-.03.58-.19,1.1-.47,1.54-.28.44-.67.79-1.17,1.04-.5.25-1.09.37-1.76.37Z"/>
        <path class="cls-2" d="m199.59,2.68v1.59h-4.6v-1.59h4.6Zm-3.55-1.83h2.12v7.12c0,.2.03.35.09.46s.14.18.25.23c.11.04.23.06.38.06.1,0,.2,0,.3-.03.1-.02.18-.03.23-.04l.33,1.58c-.11.03-.25.07-.45.12s-.43.07-.7.08c-.51.02-.96-.05-1.34-.2-.38-.16-.68-.4-.89-.73-.21-.33-.32-.74-.31-1.24V.86Z"/>
        <path class="cls-2" d="m201.16,10.32V2.68h2.05v1.33h.08c.14-.47.37-.83.7-1.08.33-.24.71-.37,1.13-.37.11,0,.22,0,.34.02.12.01.23.03.32.05v1.88c-.1-.03-.24-.06-.41-.08-.18-.02-.34-.04-.48-.04-.31,0-.59.07-.83.2-.24.13-.44.32-.58.56-.14.24-.21.51-.21.83v4.32h-2.12Z"/>
        <path class="cls-2" d="m211.98,7.07V2.68h2.12v7.64h-2.03v-1.39h-.08c-.17.45-.46.81-.86,1.08-.4.27-.89.41-1.46.41-.51,0-.96-.12-1.35-.35-.39-.23-.69-.56-.91-.99-.22-.43-.33-.94-.33-1.54V2.68h2.12v4.48c0,.45.12.81.36,1.07.24.26.56.39.96.39.26,0,.49-.06.72-.18.22-.12.4-.29.54-.52.14-.23.2-.52.2-.86Z"/>
        <path class="cls-2" d="m215.98,10.32V2.68h2.02v1.35h.09c.16-.45.42-.8.8-1.06.37-.26.81-.39,1.33-.39s.97.13,1.34.39c.37.26.61.61.74,1.06h.08c.16-.44.44-.79.85-1.05s.89-.39,1.45-.39c.71,0,1.29.23,1.74.68.45.45.67,1.09.67,1.92v5.14h-2.11v-4.72c0-.42-.11-.74-.34-.96-.23-.21-.51-.32-.85-.32-.38,0-.68.12-.9.37-.22.24-.32.56-.32.96v4.66h-2.05v-4.76c0-.38-.11-.67-.32-.89-.21-.22-.5-.33-.84-.33-.24,0-.45.06-.63.18-.19.12-.34.28-.45.49-.11.21-.16.46-.16.74v4.58h-2.12Z"/>
      </g>
    </g>
  </g>
</svg>