<?xml version="1.0" encoding="UTF-8"?>
<svg id="Layer_2" data-name="Layer 2" xmlns="http://www.w3.org/2000/svg" viewBox="0 0 117.22 119.15">
  <defs>
    <style>
      .cls-1 {
        fill: #2352f5;
        stroke-width: 0px;
      }
    </style>
  </defs>
  <g id="Layer_1-2" data-name="Layer 1">
    <g>
      <path class="cls-1" d="m63.66,54.06c-.1-.88-.49-1.57-1.19-2.07-.7-.49-1.61-.74-2.72-.74-.78,0-1.46.12-2.02.35-.56.24-.99.56-1.29.96s-.45.87-.46,1.39c0,.43.1.81.3,1.12s.47.59.81.81c.35.22.73.4,1.14.55.42.15.84.27,1.27.38l1.94.49c.78.18,1.54.43,2.27.74.72.31,1.38.7,1.96,1.17.58.47,1.03,1.04,1.37,1.71.34.67.51,1.45.51,2.35,0,1.22-.31,2.28-.93,3.21-.62.92-1.52,1.64-2.69,2.16-1.17.52-2.59.77-4.25.77s-3.01-.25-4.2-.75-2.11-1.23-2.78-2.19c-.67-.96-1.03-2.13-1.08-3.5h3.7c.05.72.28,1.32.67,1.8.39.48.9.84,1.54,1.07.63.24,1.34.35,2.12.35s1.54-.12,2.15-.37c.62-.25,1.1-.59,1.46-1.03.35-.44.53-.96.54-1.56,0-.54-.16-.99-.47-1.34s-.75-.65-1.3-.89-1.21-.45-1.95-.64l-2.36-.61c-1.71-.44-3.06-1.11-4.05-2-.99-.89-1.48-2.08-1.48-3.57,0-1.22.33-2.29,1-3.21.66-.92,1.57-1.63,2.72-2.14,1.15-.51,2.45-.77,3.9-.77s2.76.25,3.88.77c1.11.51,1.98,1.22,2.62,2.12.63.9.96,1.94.98,3.1h-3.62Zm-4.79,17.64v-25.93h1.66v25.93h-1.66Z"/>
      <path class="cls-1" d="m59,84.37c-14.14,0-25.64-11.5-25.64-25.64s11.5-25.64,25.64-25.64,25.64,11.5,25.64,25.64-11.5,25.64-25.64,25.64Zm0-48.28c-12.48,0-22.64,10.16-22.64,22.64s10.16,22.64,22.64,22.64,22.64-10.16,22.64-22.64-10.16-22.64-22.64-22.64Z"/>
      <path class="cls-1" d="m59.6,36.18c-.83,0-1.5-.67-1.5-1.5V12.55c0-.83.67-1.5,1.5-1.5s1.5.67,1.5,1.5v22.12c0,.83-.67,1.5-1.5,1.5Z"/>
      <circle class="cls-1" cx="59.6" cy="6.28" r="6.28"/>
      <g>
        <path class="cls-1" d="m7.78,44.64c-4.29,0-7.78-3.49-7.78-7.78s3.49-7.78,7.78-7.78,7.78,3.49,7.78,7.78-3.49,7.78-7.78,7.78Zm0-12.56c-2.63,0-4.78,2.14-4.78,4.78s2.14,4.78,4.78,4.78,4.78-2.14,4.78-4.78-2.14-4.78-4.78-4.78Z"/>
        <path class="cls-1" d="m36.86,47.7c-.34,0-.69-.12-.97-.36l-9.96-8.48h-11.84c-.83,0-1.5-.67-1.5-1.5s.67-1.5,1.5-1.5h12.4c.36,0,.7.13.97.36l10.38,8.83c.63.54.71,1.48.17,2.11-.3.35-.72.53-1.14.53Z"/>
      </g>
      <g>
        <path class="cls-1" d="m109.44,44.64c-4.29,0-7.78-3.49-7.78-7.78s3.49-7.78,7.78-7.78,7.78,3.49,7.78,7.78-3.49,7.78-7.78,7.78Zm0-12.56c-2.63,0-4.78,2.14-4.78,4.78s2.14,4.78,4.78,4.78,4.78-2.14,4.78-4.78-2.14-4.78-4.78-4.78Z"/>
        <path class="cls-1" d="m80.35,47.7c-.42,0-.85-.18-1.14-.53-.54-.63-.46-1.58.17-2.11l10.38-8.83c.27-.23.62-.36.97-.36h12.4c.83,0,1.5.67,1.5,1.5s-.67,1.5-1.5,1.5h-11.84l-9.96,8.48c-.28.24-.63.36-.97.36Z"/>
      </g>
      <path class="cls-1" d="m59.6,106.6c-.83,0-1.5-.67-1.5-1.5v-22.12c0-.83.67-1.5,1.5-1.5s1.5.67,1.5,1.5v22.12c0,.83-.67,1.5-1.5,1.5Z"/>
      <path class="cls-1" d="m59.6,119.15c-4.29,0-7.78-3.49-7.78-7.78s3.49-7.78,7.78-7.78,7.78,3.49,7.78,7.78-3.49,7.78-7.78,7.78Zm0-12.55c-2.63,0-4.78,2.14-4.78,4.78s2.14,4.78,4.78,4.78,4.78-2.14,4.78-4.78-2.14-4.78-4.78-4.78Z"/>
      <g>
        <circle class="cls-1" cx="7.78" cy="80.78" r="6.28"/>
        <path class="cls-1" d="m26.49,81.78h-12.4c-.83,0-1.5-.67-1.5-1.5s.67-1.5,1.5-1.5h11.84l9.96-8.48c.63-.54,1.58-.46,2.12.17.54.63.46,1.58-.17,2.11l-10.38,8.83c-.27.23-.62.36-.97.36Z"/>
      </g>
      <g>
        <circle class="cls-1" cx="109.44" cy="80.78" r="6.28"/>
        <path class="cls-1" d="m103.12,81.78h-12.4c-.36,0-.7-.13-.97-.36l-10.38-8.83c-.63-.54-.71-1.48-.17-2.11.54-.63,1.48-.71,2.12-.17l9.96,8.48h11.84c.83,0,1.5.67,1.5,1.5s-.67,1.5-1.5,1.5Z"/>
      </g>
    </g>
  </g>
</svg>