<?xml version="1.0" encoding="UTF-8"?>
<svg id="Layer_2" data-name="Layer 2" xmlns="http://www.w3.org/2000/svg" viewBox="0 0 164 164">
  <defs>
    <style>
      .cls-1 {
        fill: #056eff;
      }

      .cls-1, .cls-2 {
        stroke-width: 0px;
      }

      .cls-2 {
        fill: #fff;
      }
    </style>
  </defs>
  <g id="Layer_1-2" data-name="Layer 1">
    <g>
      <circle class="cls-1" cx="82" cy="82" r="82"/>
      <g>
        <g id="Artwork">
          <g>
            <path class="cls-2" d="m89.24,132.51c-.67,0-1.26-.45-1.44-1.1-.19-.69-4.65-17.15,4.56-30.23,6.23-8.85,17.15-13.88,32.43-14.95.81-.07,1.49.52,1.59,1.3.1.8,2.39,19.63-8.76,32.82-6.42,7.59-15.95,11.68-28.33,12.15-.02,0-.04,0-.06,0Zm34.29-43.17c-13.56,1.21-23.21,5.77-28.7,13.55-7.07,10.02-5.2,22.71-4.4,26.56,10.89-.65,19.26-4.36,24.9-11.02,8.62-10.18,8.49-24.56,8.21-29.09Z"/>
            <path class="cls-2" d="m74.75,132.51s-.04,0-.06,0c-12.37-.48-21.89-4.56-28.31-12.15-11.16-13.19-8.88-32.03-8.78-32.82.1-.79.79-1.37,1.59-1.3,15.27,1.08,26.18,6.11,32.42,14.95,9.22,13.08,4.77,29.54,4.58,30.23-.18.65-.77,1.1-1.44,1.1Zm-34.29-43.17c-.28,4.53-.39,18.92,8.23,29.09,5.64,6.65,14,10.36,24.88,11.01.79-3.85,2.66-16.54-4.42-26.56-5.5-7.78-15.14-12.33-28.69-13.55Z"/>
            <path class="cls-2" d="m81.99,141.5c-.33,0-.66-.11-.94-.33-.65-.52-.75-1.46-.23-2.11l32.75-40.7c.52-.65,1.46-.75,2.11-.23.65.52.75,1.46.23,2.11l-32.75,40.7c-.3.37-.73.56-1.17.56Z"/>
            <path class="cls-2" d="m99.13,120.23c-.34,0-.68-.12-.95-.34-.36-.3-.57-.75-.55-1.22l.6-14.54c.03-.83.72-1.48,1.56-1.44.83.03,1.47.73,1.44,1.56l-.52,12.55,10.87-2.67c.8-.2,1.62.29,1.81,1.1s-.29,1.62-1.1,1.81l-12.81,3.14c-.12.03-.24.04-.36.04Z"/>
            <path class="cls-2" d="m82,141.5c-.83,0-1.5-.67-1.5-1.5l-.02-51.5c0-.83.67-1.5,1.5-1.5h0c.83,0,1.5.67,1.5,1.5l.02,51.5c0,.83-.67,1.5-1.5,1.5h0Z"/>
            <path class="cls-2" d="m82,141.5c-.44,0-.87-.19-1.17-.56l-32.75-40.7c-.52-.65-.42-1.59.23-2.11.65-.52,1.59-.42,2.11.23l32.75,40.7c.52.65.42,1.59-.23,2.11-.28.22-.61.33-.94.33Z"/>
            <path class="cls-2" d="m64.86,120.23c-.12,0-.24-.01-.36-.04l-12.8-3.14c-.8-.2-1.3-1.01-1.1-1.81.2-.8,1.01-1.3,1.81-1.1l10.86,2.67-.51-12.55c-.03-.83.61-1.53,1.44-1.56.87-.04,1.53.61,1.56,1.44l.59,14.54c.02.47-.18.92-.55,1.22-.27.22-.61.34-.95.34Z"/>
          </g>
        </g>
        <path class="cls-2" d="m83.01,89.55c-18.49,0-33.52-15.04-33.52-33.52s15.04-33.52,33.52-33.52,33.52,15.04,33.52,33.52-15.04,33.52-33.52,33.52Zm0-64.05c-16.83,0-30.52,13.69-30.52,30.52s13.69,30.52,30.52,30.52,30.52-13.69,30.52-30.52-13.69-30.52-30.52-30.52Z"/>
        <path class="cls-2" d="m88.04,49.29c-.15-1.31-.76-2.33-1.83-3.05-1.07-.72-2.42-1.09-4.04-1.09-1.16,0-2.17.18-3.02.55-.85.36-1.51.86-1.97,1.5-.47.63-.7,1.35-.7,2.15,0,.67.16,1.26.48,1.75.32.49.74.9,1.26,1.23s1.08.6,1.68.82c.6.22,1.18.4,1.73.53l2.77.72c.91.22,1.83.52,2.78.9.95.38,1.83.88,2.65,1.5s1.47,1.39,1.97,2.3c.5.91.75,2.01.75,3.28,0,1.61-.41,3.03-1.24,4.28-.83,1.25-2.02,2.23-3.59,2.95-1.56.72-3.46,1.08-5.67,1.08s-3.96-.34-5.51-1.01c-1.55-.67-2.77-1.63-3.64-2.87-.88-1.24-1.36-2.72-1.46-4.43h4.29c.08,1.02.42,1.88,1,2.56.59.68,1.34,1.18,2.26,1.51.92.33,1.93.49,3.03.49,1.21,0,2.29-.19,3.23-.57.95-.38,1.69-.92,2.24-1.61.54-.69.82-1.49.82-2.42,0-.84-.24-1.53-.71-2.06-.48-.54-1.12-.98-1.93-1.33-.81-.35-1.72-.66-2.74-.93l-3.35-.91c-2.27-.62-4.07-1.53-5.39-2.73-1.33-1.2-1.99-2.79-1.99-4.76,0-1.63.44-3.06,1.33-4.28s2.09-2.17,3.6-2.85,3.22-1.02,5.12-1.02,3.62.34,5.09,1.01c1.47.67,2.63,1.6,3.48,2.78.85,1.18,1.29,2.53,1.33,4.05h-4.13Zm-7.11,24.46v-35.46h2.27v35.46h-2.27Z"/>
      </g>
    </g>
  </g>
</svg>